M48
; DRILL file {KiCad (6.0.6-0)} date 
; FORMAT={-:-/ absolute / metric / decimal}
; #@! TF.CreationDate,2024-03-13T21:56:06-07:00
; #@! TF.GenerationSoftware,Kicad,Pcbnew,(6.0.6-0)
; #@! TF.FileFunction,Plated,1,2,PTH
FMAT,2
METRIC
; #@! TA.AperFunction,Plated,PTH,ViaDrill
T1C0.400
; #@! TA.AperFunction,Plated,PTH,ComponentDrill
T2C0.700
; #@! TA.AperFunction,Plated,PTH,ComponentDrill
T3C1.000
; #@! TA.AperFunction,Plated,PTH,ComponentDrill
T4C1.040
; #@! TA.AperFunction,Plated,PTH,ComponentDrill
T5C1.090
; #@! TA.AperFunction,Plated,PTH,ComponentDrill
T6C1.200
; #@! TA.AperFunction,Plated,PTH,ComponentDrill
T7C1.400
; #@! TA.AperFunction,Plated,PTH,ComponentDrill
T8C1.850
%
G90
G05
T1
X126.5Y-40.5
X126.5Y-43.75
X126.5Y-47.5
X126.5Y-51.0
X126.5Y-54.25
X126.5Y-57.25
X126.5Y-60.75
X126.5Y-64.25
X127.5Y-66.25
X127.5Y-69.75
X127.5Y-74.0
X127.5Y-78.25
X127.5Y-82.5
X127.5Y-86.5
X127.5Y-89.5
X127.5Y-92.75
X127.5Y-96.0
X127.5Y-99.25
X127.5Y-102.5
X127.5Y-105.75
X127.5Y-108.75
X127.5Y-111.75
X129.5Y-40.5
X129.5Y-43.75
X129.5Y-47.5
X129.5Y-51.0
X129.5Y-54.25
X129.5Y-57.25
X129.5Y-60.75
X129.5Y-64.25
X130.726Y-73.948
X130.75Y-66.25
X130.75Y-69.75
X130.75Y-78.25
X130.75Y-122.25
X130.75Y-132.5
X130.75Y-135.5
X130.75Y-138.75
X133.05Y-94.38
X133.25Y-102.75
X133.25Y-106.0
X133.25Y-108.75
X133.25Y-111.75
X133.75Y-64.25
X133.89Y-69.75
X134.0Y-66.25
X134.5Y-132.5
X134.5Y-135.5
X134.5Y-138.75
X136.0Y-80.0
X136.25Y-102.75
X136.25Y-106.0
X136.25Y-108.75
X136.25Y-111.75
X137.0Y-51.0
X137.0Y-53.5
X137.0Y-56.25
X137.0Y-59.0
X137.0Y-61.75
X137.0Y-64.25
X138.0Y-120.0
X138.0Y-123.0
X138.0Y-126.0
X138.0Y-129.25
X138.0Y-132.5
X138.0Y-135.5
X138.0Y-138.75
X138.0Y-141.75
X138.11Y-83.74
X139.75Y-29.25
X140.0Y-32.5
X140.0Y-35.5
X140.0Y-61.75
X140.0Y-64.0
X141.0Y-80.0
X141.0Y-120.0
X141.0Y-123.0
X141.0Y-126.0
X141.0Y-129.25
X141.0Y-132.5
X141.0Y-135.5
X141.0Y-138.75
X141.0Y-141.75
X142.5Y-86.25
X142.5Y-89.75
X142.5Y-92.75
X142.75Y-39.25
X143.0Y-29.25
X143.0Y-32.5
X143.0Y-35.5
X143.0Y-61.75
X143.0Y-64.0
X144.0Y-120.0
X144.0Y-123.0
X144.0Y-126.0
X144.0Y-129.25
X144.0Y-132.5
X144.0Y-135.5
X144.0Y-138.75
X144.0Y-141.75
X145.75Y-29.25
X145.75Y-32.5
X145.75Y-35.5
X145.75Y-39.25
X145.75Y-111.25
X147.5Y-115.5
X147.5Y-118.5
X147.5Y-121.75
X147.5Y-124.5
X147.5Y-127.25
X147.5Y-130.25
X149.75Y-85.0
X149.75Y-87.0
X149.75Y-89.0
X149.75Y-91.75
X150.0Y-27.75
X150.0Y-66.25
X150.0Y-69.5
X150.0Y-72.5
X150.0Y-75.5
X150.0Y-78.75
X150.5Y-141.75
X150.5Y-144.25
X150.5Y-147.75
X150.75Y-115.5
X150.75Y-118.5
X150.75Y-121.75
X150.75Y-124.5
X150.75Y-127.25
X150.75Y-130.0
X150.825Y-105.689
X151.151Y-81.661
X152.019Y-95.631
X152.5Y-85.0
X152.5Y-87.0
X152.5Y-89.0
X153.0Y-66.25
X153.137Y-107.645
X153.162Y-95.631
X153.213Y-103.632
X153.213Y-105.74
X153.25Y-141.75
X153.25Y-144.25
X153.75Y-49.25
X153.75Y-52.25
X153.75Y-55.25
X153.75Y-58.25
X153.75Y-62.0
X153.75Y-115.5
X153.75Y-118.5
X153.75Y-121.75
X153.75Y-124.5
X153.75Y-127.25
X153.75Y-130.0
X154.3Y-83.37
X154.5Y-27.75
X154.75Y-85.0
X154.75Y-87.0
X154.75Y-89.0
X155.25Y-147.75
X155.88Y-93.243
X156.0Y-75.5
X156.0Y-78.5
X156.5Y-49.25
X156.5Y-52.25
X156.5Y-55.25
X156.5Y-58.25
X156.5Y-62.0
X157.25Y-85.0
X157.25Y-87.0
X157.886Y-99.238
X157.9Y-98.25
X158.0Y-27.75
X159.25Y-49.25
X159.25Y-52.25
X159.25Y-55.25
X159.25Y-58.25
X159.25Y-62.0
X159.5Y-85.0
X159.5Y-87.0
X159.75Y-147.75
X160.0Y-119.0
X160.0Y-120.035
X160.0Y-121.051
X160.25Y-96.0
X160.25Y-97.25
X160.25Y-98.5
X160.25Y-99.75
X160.25Y-101.25
X160.25Y-102.75
X160.25Y-104.0
X161.0Y-28.0
X161.75Y-96.0
X161.75Y-97.25
X161.75Y-98.5
X161.75Y-99.75
X161.75Y-101.25
X161.75Y-102.75
X161.75Y-104.0
X162.0Y-85.0
X162.0Y-87.0
X163.0Y-31.5
X163.0Y-96.0
X163.0Y-97.25
X163.0Y-98.5
X163.0Y-99.75
X163.0Y-101.25
X163.0Y-102.75
X163.0Y-104.0
X163.75Y-147.75
X164.44Y-64.45
X164.5Y-87.0
X164.5Y-96.0
X164.5Y-97.25
X164.5Y-98.5
X164.5Y-99.75
X164.5Y-101.25
X164.5Y-102.75
X164.5Y-104.0
X164.75Y-67.25
X164.75Y-69.5
X164.75Y-71.75
X165.0Y-46.25
X165.0Y-49.25
X165.75Y-28.75
X167.15Y-99.45
X167.157Y-98.2
X167.225Y-94.175
X167.25Y-60.25
X167.488Y-95.682
X167.62Y-119.0
X167.62Y-120.035
X167.62Y-121.051
X168.25Y-147.75
X168.3Y-86.56
X168.3Y-89.5
X168.402Y-53.975
X168.75Y-58.25
X169.0Y-68.25
X169.0Y-70.5
X169.0Y-72.75
X170.485Y-108.636
X170.5Y-89.25
X170.87Y-102.06
X170.96Y-52.48
X171.069Y-37.019
X171.16Y-103.33
X171.75Y-32.0
X171.75Y-34.75
X171.75Y-82.5
X171.933Y-95.707
X172.5Y-133.5
X172.5Y-135.75
X172.5Y-138.25
X172.5Y-147.75
X173.0Y-100.46
X173.25Y-62.0
X173.36Y-91.57
X174.0Y-52.48
X174.0Y-116.0
X174.0Y-119.0
X174.0Y-122.0
X174.0Y-124.5
X174.25Y-82.5
X174.3Y-84.6
X174.75Y-32.0
X174.75Y-34.5
X174.75Y-36.75
X175.212Y-55.168
X175.438Y-107.95
X176.25Y-44.5
X176.5Y-57.75
X176.75Y-147.75
X177.0Y-95.75
X177.0Y-98.5
X177.0Y-102.0
X177.0Y-116.0
X177.0Y-119.0
X177.0Y-122.0
X177.0Y-124.5
X177.0Y-127.5
X177.5Y-32.0
X177.5Y-34.5
X177.5Y-36.75
X177.8Y-108.0
X177.83Y-91.6
X178.225Y-69.275
X178.689Y-43.053
X179.959Y-51.943
X180.0Y-98.5
X180.0Y-102.0
X180.0Y-116.0
X180.0Y-119.0
X180.0Y-122.0
X180.0Y-124.5
X180.0Y-127.5
X180.2Y-108.0
X180.5Y-32.0
X180.5Y-34.5
X180.5Y-36.75
X180.594Y-73.152
X181.102Y-58.039
X181.5Y-147.75
X182.08Y-84.95
X182.08Y-89.16
X182.5Y-52.0
X182.5Y-54.25
X182.75Y-75.5
X182.75Y-78.25
X182.75Y-80.75
X182.75Y-83.0
X183.0Y-32.0
X183.0Y-34.5
X183.0Y-36.75
X183.5Y-63.0
X183.5Y-68.0
X183.5Y-70.75
X183.71Y-89.12
X184.15Y-104.902
X184.15Y-126.365
X186.0Y-80.75
X186.0Y-83.0
X186.06Y-126.33
X186.25Y-147.75
X187.42Y-142.37
X187.425Y-107.875
X188.75Y-48.75
X188.75Y-51.25
X188.75Y-54.75
X188.92Y-85.01
X189.26Y-68.21
X189.26Y-73.91
X189.27Y-69.94
X189.5Y-105.5
X189.5Y-108.5
X189.5Y-115.5
X189.5Y-118.25
X189.5Y-121.0
X189.5Y-123.75
X189.5Y-126.25
X190.308Y-89.093
X190.5Y-97.5
X190.5Y-100.5
X191.0Y-32.0
X191.0Y-34.5
X191.0Y-36.75
X191.0Y-38.75
X191.0Y-42.0
X191.0Y-92.0
X191.0Y-147.75
X191.975Y-74.0
X192.075Y-71.7
X192.27Y-49.42
X192.75Y-115.5
X192.75Y-118.25
X192.75Y-121.0
X192.75Y-123.75
X192.75Y-126.25
X192.75Y-128.75
X192.75Y-131.25
X193.5Y-93.5
X193.5Y-97.5
X193.626Y-47.947
X193.725Y-63.575
X193.75Y-32.0
X193.75Y-34.5
X193.75Y-36.75
X193.75Y-38.75
X193.75Y-42.0
X194.075Y-71.7
X194.075Y-73.95
X194.175Y-61.275
X194.564Y-58.42
X194.564Y-76.2
X195.75Y-115.5
X195.75Y-118.25
X195.75Y-121.0
X195.75Y-123.75
X195.75Y-126.25
X195.75Y-128.75
X195.75Y-131.25
X195.75Y-133.75
X195.75Y-137.0
X196.0Y-147.75
X196.4Y-89.3
X196.5Y-32.0
X196.5Y-34.5
X196.5Y-36.75
X196.5Y-38.75
X196.5Y-42.0
X196.93Y-103.36
X197.31Y-69.94
X197.866Y-107.264
X197.866Y-108.864
X198.247Y-86.487
X198.374Y-48.387
X198.43Y-68.21
X199.25Y-32.0
X199.25Y-34.5
X199.25Y-36.75
X199.25Y-38.75
X199.25Y-42.0
X199.33Y-92.77
X199.64Y-74.05
X200.0Y-147.75
X200.72Y-91.33
X200.75Y-119.02
X200.75Y-120.052
X200.75Y-121.068
X200.9Y-51.825
X201.092Y-99.314
X201.1Y-98.2
X201.11Y-76.82
X201.25Y-84.25
X201.5Y-58.0
X202.0Y-32.0
X202.0Y-34.5
X202.0Y-36.75
X202.0Y-38.75
X202.0Y-73.0
X202.63Y-75.39
X202.85Y-63.5
X203.0Y-65.5
X203.0Y-68.0
X203.25Y-42.5
X203.25Y-45.25
X203.25Y-47.75
X203.25Y-50.25
X203.5Y-96.25
X203.5Y-97.5
X203.5Y-98.75
X203.5Y-100.0
X203.5Y-101.25
X203.5Y-102.5
X203.5Y-103.75
X203.75Y-84.25
X204.0Y-58.0
X204.75Y-96.25
X204.75Y-97.5
X204.75Y-98.75
X204.75Y-100.0
X204.75Y-101.25
X204.75Y-102.5
X204.75Y-103.75
X204.75Y-147.75
X205.0Y-74.5
X205.0Y-77.0
X205.867Y-57.404
X206.0Y-36.75
X206.0Y-39.5
X206.0Y-42.5
X206.0Y-45.25
X206.0Y-47.75
X206.0Y-50.25
X206.25Y-84.25
X206.5Y-96.25
X206.5Y-97.5
X206.5Y-98.75
X206.5Y-100.0
X206.5Y-101.25
X206.5Y-102.5
X206.5Y-103.75
X207.137Y-61.722
X207.5Y-59.0
X207.75Y-96.25
X207.75Y-97.5
X207.75Y-98.75
X207.75Y-100.0
X207.75Y-101.25
X207.75Y-102.5
X207.75Y-103.75
X208.25Y-84.88
X208.28Y-28.51
X208.37Y-119.02
X208.37Y-120.052
X208.37Y-121.068
X208.5Y-36.75
X208.5Y-39.5
X208.5Y-42.5
X208.5Y-45.25
X208.5Y-47.75
X208.5Y-50.25
X209.0Y-57.0
X209.0Y-65.0
X209.0Y-67.5
X209.25Y-147.75
X210.287Y-91.186
X210.287Y-98.374
X210.3Y-99.5
X212.84Y-92.28
X212.94Y-29.27
X213.1Y-113.26
X213.25Y-134.75
X213.25Y-137.5
X213.28Y-82.59
X213.35Y-81.08
X213.512Y-107.366
X213.512Y-108.89
X213.56Y-27.62
X214.0Y-147.75
X214.25Y-86.0
X214.41Y-100.64
X214.427Y-93.574
X215.214Y-99.466
X215.925Y-103.124
X216.03Y-75.85
X216.06Y-72.86
X216.5Y-86.0
X216.5Y-88.25
X216.5Y-113.25
X216.5Y-116.0
X216.5Y-118.5
X216.5Y-124.25
X216.5Y-126.5
X216.68Y-46.23
X216.7Y-96.42
X216.75Y-38.75
X217.17Y-52.37
X217.17Y-61.65
X217.17Y-71.45
X217.55Y-99.86
X218.0Y-27.5
X218.18Y-127.94
X218.75Y-86.0
X218.75Y-88.25
X218.75Y-90.75
X218.75Y-147.75
X219.25Y-38.75
X219.25Y-41.0
X219.25Y-43.0
X219.25Y-113.25
X219.25Y-115.75
X219.25Y-118.5
X219.25Y-124.25
X219.25Y-126.5
X219.37Y-76.11
X219.5Y-105.5
X219.5Y-108.0
X219.5Y-110.75
X221.5Y-27.5
X221.75Y-38.75
X221.75Y-41.0
X221.75Y-43.0
X222.0Y-105.5
X222.0Y-108.0
X222.0Y-110.75
X222.0Y-113.25
X222.0Y-115.75
X222.0Y-118.5
X222.16Y-70.04
X222.75Y-99.75
X223.0Y-86.25
X223.0Y-88.75
X223.0Y-91.0
X223.5Y-147.75
X223.75Y-101.61
X224.79Y-61.83
X225.0Y-86.25
X225.0Y-88.75
X225.0Y-91.0
X225.25Y-27.5
X225.33Y-122.04
X225.5Y-119.75
X225.5Y-124.0
X225.5Y-126.5
X225.5Y-129.5
X225.5Y-132.5
X225.5Y-135.5
X225.5Y-138.5
X225.5Y-141.75
X226.782Y-50.992
X228.25Y-119.75
X228.25Y-124.0
X228.25Y-129.5
X228.25Y-132.5
X228.25Y-135.5
X228.25Y-138.5
X228.25Y-141.75
X228.473Y-66.929
X228.75Y-27.5
X228.75Y-30.0
X228.75Y-32.75
X228.75Y-35.75
X228.75Y-38.5
X228.75Y-41.25
X229.74Y-90.77
X229.74Y-93.25
X230.49Y-44.55
X231.02Y-74.3
X231.02Y-76.11
X231.07Y-52.53
X231.09Y-68.59
X231.14Y-82.59
X231.18Y-81.08
X231.25Y-38.5
X231.25Y-41.25
X232.0Y-119.75
X232.0Y-124.0
X232.0Y-126.75
X232.0Y-129.5
X232.0Y-132.5
X232.0Y-135.5
X232.0Y-138.5
X233.75Y-38.5
X233.75Y-41.25
X235.0Y-94.75
X235.0Y-98.0
X235.0Y-100.75
X235.0Y-104.0
X235.0Y-107.25
X235.25Y-60.0
X235.75Y-132.5
X235.75Y-138.5
X236.0Y-77.75
X236.25Y-38.5
X236.25Y-41.25
X236.5Y-119.75
X236.5Y-124.0
X238.25Y-60.0
X238.25Y-77.75
X238.98Y-92.99
X239.0Y-38.5
X239.0Y-41.25
X239.0Y-100.75
X239.0Y-104.0
X239.0Y-107.25
X239.75Y-132.5
X239.75Y-135.5
X239.75Y-138.5
X240.5Y-77.75
X240.75Y-57.25
X240.75Y-60.0
X241.75Y-38.5
X241.75Y-41.25
X241.75Y-44.0
X241.75Y-46.75
X241.75Y-50.0
X241.75Y-53.0
T2
X238.125Y-45.72
X238.125Y-46.99
X238.125Y-48.26
X238.125Y-49.53
X238.125Y-50.8
X239.395Y-45.72
X239.395Y-46.99
X239.395Y-48.26
X239.395Y-49.53
X239.395Y-50.8
T3
X159.28Y-66.04
X159.28Y-68.58
X159.28Y-71.12
X159.28Y-73.66
X159.28Y-76.2
X159.28Y-78.74
X171.98Y-66.04
X171.98Y-68.58
X171.98Y-71.12
X171.98Y-73.66
X171.98Y-76.2
X171.98Y-78.74
X237.485Y-63.51
X237.485Y-66.05
X237.485Y-68.59
X237.485Y-71.13
X237.485Y-81.29
X237.485Y-83.83
X237.485Y-86.37
X237.485Y-88.91
X240.025Y-63.51
X240.025Y-66.05
X240.025Y-68.59
X240.025Y-71.13
X240.025Y-81.29
X240.025Y-83.83
X240.025Y-86.37
X240.025Y-88.91
T4
X185.952Y-32.46
X185.952Y-35.0
X185.952Y-37.54
X185.952Y-40.08
X185.952Y-42.62
X185.952Y-45.16
X185.952Y-47.7
X185.952Y-50.24
X185.952Y-52.78
X185.952Y-55.32
X185.952Y-57.86
X185.952Y-60.4
X185.952Y-62.94
X185.952Y-65.48
X185.952Y-68.02
X185.952Y-70.56
X185.952Y-73.1
X185.952Y-75.64
X185.952Y-78.18
X211.352Y-32.46
X211.352Y-35.0
X211.352Y-37.54
X211.352Y-40.08
X211.352Y-42.62
X211.352Y-45.16
X211.352Y-47.7
X211.352Y-50.24
X211.352Y-52.78
X211.352Y-55.32
X211.352Y-57.86
X211.352Y-60.4
X211.352Y-62.94
X211.352Y-65.48
X211.352Y-68.02
X211.352Y-70.56
X211.352Y-73.1
X211.352Y-75.64
X211.352Y-78.18
T5
X158.29Y-134.692
X159.675Y-137.532
X161.06Y-134.692
X162.445Y-137.532
X163.83Y-134.692
X165.215Y-137.532
X166.6Y-134.692
X167.985Y-137.532
X169.37Y-134.692
X198.93Y-134.692
X200.315Y-137.532
X201.7Y-134.692
X203.085Y-137.532
X204.47Y-134.692
X205.855Y-137.532
X207.24Y-134.692
X208.625Y-137.532
X210.01Y-134.692
T6
X140.97Y-115.565
X140.97Y-146.045
X227.33Y-115.565
X227.33Y-146.045
T7
X130.81Y-115.57
X130.81Y-128.27
X237.49Y-115.57
X237.49Y-128.27
T8
X133.8Y-55.542
X133.8Y-60.622
X146.5Y-53.383
X146.5Y-58.082
X146.5Y-62.782
T3
X132.58Y-42.91G85X132.58Y-40.91
G05
X136.58Y-46.61G85X134.58Y-46.61
G05
X138.58Y-43.16G85X138.58Y-40.66
G05
T0
M30
